<?xml version="1.0" encoding="UTF-8"?>
<svg version="1.1" xmlns="http://www.w3.org/2000/svg" width="250" height="250">
<path d="M0 0 C82.5 0 165 0 250 0 C250 82.5 250 165 250 250 C167.5 250 85 250 0 250 C0 167.5 0 85 0 0 Z " fill="#107911" transform="translate(0,0)"/>
<path d="M0 0 C11.66544708 -0.0903221 23.33066242 -0.16372814 34.99637985 -0.20724869 C40.41308316 -0.22813499 45.82953511 -0.25647193 51.24609375 -0.30175781 C56.47212448 -0.34517797 61.69791324 -0.36912925 66.92411041 -0.37950897 C68.91926127 -0.3869072 70.9143987 -0.40135404 72.90944672 -0.42292023 C75.70131686 -0.4519032 78.49218363 -0.45595813 81.28417969 -0.45410156 C82.52495773 -0.47567322 82.52495773 -0.47567322 83.790802 -0.49768066 C87.14178412 -0.47352418 89.43811861 -0.39991778 92.21228504 1.57458878 C94.67344058 4.91366375 94.50055002 7.15837821 94.50120544 11.28759766 C94.50950704 12.39104995 94.50950704 12.39104995 94.51797634 13.5167942 C94.53159459 15.98289351 94.51660808 18.44798276 94.50170898 20.9140625 C94.50549175 22.68154328 94.51099144 24.44902109 94.51808167 26.2164917 C94.53205912 31.01814891 94.52085046 35.81944871 94.50437045 40.62108612 C94.49053426 45.64273876 94.4969784 50.66437034 94.50050354 55.68603516 C94.5032068 64.11952484 94.48972013 72.55287229 94.46655273 80.98632812 C94.43994229 90.74073867 94.43819548 100.49491138 94.4499411 110.24934578 C94.46071514 119.62742281 94.45453474 129.0054137 94.44038582 138.38348389 C94.43462277 142.37703484 94.4347112 146.37052282 94.43945122 150.36407471 C94.44421869 155.06564764 94.43412885 159.76695968 94.41249657 164.46848297 C94.40692539 166.19545868 94.40646643 167.92245944 94.41144943 169.64943695 C94.41739207 172.00404961 94.4049175 174.35786187 94.38768005 176.71240234 C94.38525016 178.03090179 94.38282026 179.34940125 94.38031673 180.70785522 C93.97841463 184.18684992 93.49420484 185.59013876 91 188 C87.16915269 189.2769491 83.57197145 189.13119309 79.58129883 189.11352539 C78.29317039 189.11374443 78.29317039 189.11374443 76.97901917 189.1139679 C74.1383309 189.11327079 71.29770807 189.10548783 68.45703125 189.09765625 C66.48833756 189.09579135 64.51964341 189.09436779 62.5509491 189.09336853 C57.36746949 189.08954901 52.18401786 189.07972352 47.00054932 189.06866455 C41.7119586 189.0584383 36.42336337 189.0538683 31.13476562 189.04882812 C20.75649614 189.03810077 10.37825477 189.02050851 0 189 C0 179.76 0 170.52 0 161 C9.24 161 18.48 161 28 161 C28 154.4 28 147.8 28 141 C18.76 141 9.52 141 0 141 C0 135.06 0 129.12 0 123 C9.24 123 18.48 123 28 123 C28 116.4 28 109.8 28 103 C18.76 103 9.52 103 0 103 C0 97.06 0 91.12 0 85 C9.24 85 18.48 85 28 85 C28 78.73 28 72.46 28 66 C18.76 66 9.52 66 0 66 C0 59.73 0 53.46 0 47 C9.24 47 18.48 47 28 47 C28 40.73 28 34.46 28 28 C18.76 28 9.52 28 0 28 C0 18.76 0 9.52 0 0 Z " fill="#127913" transform="translate(152,29)"/>
<path d="M0 0 C35.64 0 71.28 0 108 0 C108 82.5 108 165 108 250 C25.5 250 -57 250 -142 250 C-142 239.77 -142 229.54 -142 219 C-128.83555806 221.11571388 -115.7584547 223.35072374 -102.72460938 226.16088867 C-95.29704382 227.75918392 -87.84140568 229.17991748 -80.37097168 230.56118774 C-72.8900098 231.94574151 -65.41181293 233.34527418 -57.93310547 234.74194336 C-55.91955872 235.11761466 -53.90588979 235.49263171 -51.89208984 235.86694336 C-34.56062791 239.08938313 -17.28898046 242.54220391 0 246 C0 164.82 0 83.64 0 0 Z M10 29 C10 38.24 10 47.48 10 57 C19.24 57 28.48 57 38 57 C38 63.27 38 69.54 38 76 C28.76 76 19.52 76 10 76 C10 82.27 10 88.54 10 95 C19.24 95 28.48 95 38 95 C38 101.27 38 107.54 38 114 C28.76 114 19.52 114 10 114 C10 119.94 10 125.88 10 132 C19.24 132 28.48 132 38 132 C38 138.6 38 145.2 38 152 C28.76 152 19.52 152 10 152 C10 157.94 10 163.88 10 170 C19.24 170 28.48 170 38 170 C38 176.6 38 183.2 38 190 C28.76 190 19.52 190 10 190 C10 199.24 10 208.48 10 218 C21.40468904 218.04516296 32.80931881 218.08186551 44.214077 218.10362434 C49.50961374 218.11406684 54.8050862 218.12823462 60.10058594 218.15087891 C65.20988854 218.17259056 70.31912926 218.18456512 75.42847443 218.18975449 C77.37893905 218.19345325 79.32940024 218.20067589 81.27983856 218.21146011 C84.00922498 218.22595267 86.73835481 218.22797887 89.46777344 218.22705078 C90.68049927 218.23783661 90.68049927 218.23783661 91.91772461 218.24884033 C97.29210375 218.27368381 97.29210375 218.27368381 102 216 C104.49570086 212.25644871 104.25605253 210.30974115 104.26742554 205.83265686 C104.27422221 204.73048621 104.27422221 204.73048621 104.28115618 203.60604948 C104.29384445 201.13712385 104.29217699 198.66841757 104.29052734 196.19946289 C104.29650979 194.43213109 104.30331468 192.66480192 104.31088257 190.8974762 C104.32857753 186.09173948 104.33323939 181.28607395 104.33451414 176.48030782 C104.3364112 172.47169217 104.34376642 168.46309318 104.35085833 164.45448393 C104.36715278 154.99935117 104.37202628 145.54425651 104.37060547 136.08911133 C104.36940339 126.32731623 104.39051606 116.565742 104.4220928 106.80400282 C104.44821964 98.42941624 104.45897429 90.05490195 104.45769465 81.6802749 C104.45718401 76.6756012 104.46292366 71.67112376 104.48405075 66.66649055 C104.50337303 61.96080672 104.503599 57.25550758 104.48901749 52.54981041 C104.48692087 50.82120835 104.49168079 49.09258258 104.5037384 47.3640213 C104.51911705 45.00700021 104.50993318 42.6513179 104.49447632 40.29432678 C104.49556585 38.97452851 104.49665539 37.65473024 104.49777794 36.29493809 C104.25441962 32.95057494 104.25441962 32.95057494 102.21270561 30.57416821 C98.80036959 28.14655612 95.31349714 28.47584639 91.28417969 28.54589844 C90.40577423 28.54531433 89.52736877 28.54473022 88.62234497 28.54412842 C85.72178494 28.54691295 82.82225528 28.5780223 79.921875 28.609375 C77.90977541 28.61683608 75.89766854 28.62252964 73.88555908 28.62652588 C68.59175527 28.64179264 63.29839099 28.68108367 58.00476074 28.7253418 C52.60219265 28.76627188 47.19955348 28.78453207 41.796875 28.8046875 C31.19769256 28.84757685 20.59895161 28.91793546 10 29 Z " fill="#F7FAF7" transform="translate(142,0)"/>
<path d="M0 0 C8.58 0 17.16 0 26 0 C27.91830994 3.97838177 29.83469401 7.95767231 31.75 11.9375 C32.28882813 13.05447266 32.82765625 14.17144531 33.3828125 15.32226562 C36.35676965 21.50592042 39.26761051 27.70552749 42 34 C42.26103516 33.50298584 42.52207031 33.00597168 42.79101562 32.49389648 C48.49153203 21.64319811 54.22089819 10.80906079 60 0 C67.92 0 75.84 0 84 0 C82.34976637 4.12558408 80.6061296 7.57007339 78.3671875 11.375 C78.01165802 11.98077881 77.65612854 12.58655762 77.28982544 13.21069336 C76.53664492 14.49249627 75.78179835 15.77332151 75.02539062 17.05322266 C73.89607243 18.96433966 72.77178145 20.87833538 71.6484375 22.79296875 C70.90889197 24.04950142 70.16930875 25.3060119 69.4296875 26.5625 C68.8854715 27.4920752 68.8854715 27.4920752 68.33026123 28.44042969 C66.48860099 31.56599312 64.59936565 34.63870611 62.59082031 37.66015625 C62.20934845 38.244021 61.82787659 38.82788574 61.43484497 39.42944336 C60.38458511 41.02722101 59.31424964 42.61175048 58.24267578 44.1953125 C56.69688266 46.91196856 56.69688266 46.91196856 57.64038086 49.6027832 C58.08905518 50.39386475 58.53772949 51.18494629 59 52 C59.3808374 52.69891357 59.7616748 53.39782715 60.15405273 54.11791992 C60.57630127 54.81506104 60.9985498 55.51220215 61.43359375 56.23046875 C61.91256104 57.02501465 62.39152832 57.81956055 62.88500977 58.63818359 C63.39733154 59.47945801 63.90965332 60.32073242 64.4375 61.1875 C64.96593506 62.06229004 65.49437012 62.93708008 66.03881836 63.83837891 C68.72028405 68.2709163 71.42127318 72.69127507 74.1328125 77.10546875 C74.62595947 77.90895752 75.11910645 78.71244629 75.62719727 79.5402832 C76.55987548 81.05741227 77.49511872 82.57296848 78.43334961 84.08666992 C80.82847407 87.97483542 83.0273907 91.87368939 85 96 C80.95986485 96.29146369 76.92242571 96.46829657 72.875 96.625 C71.16183594 96.75068359 71.16183594 96.75068359 69.4140625 96.87890625 C66.01879389 96.97760592 63.27284781 96.92455405 60 96 C57.06441391 93.05554614 55.58947501 89.80431724 54 86 C53.37320124 84.77809285 52.73900804 83.55991688 52.09375 82.34765625 C51.30484375 80.72150391 51.30484375 80.72150391 50.5 79.0625 C47.49288017 72.94779976 44.31615108 66.95206604 41 61 C40.67346436 61.76787842 40.67346436 61.76787842 40.34033203 62.55126953 C37.47670726 69.15031101 34.22065142 75.509308 30.875 81.875 C30.33746094 82.90625 29.79992187 83.9375 29.24609375 85 C25.27056421 92.59415369 25.27056421 92.59415369 23 96 C20.47802734 96.34057617 20.47802734 96.34057617 17.3359375 96.29296875 C16.21445312 96.28330078 15.09296875 96.27363281 13.9375 96.26367188 C12.1740625 96.2259668 12.1740625 96.2259668 10.375 96.1875 C8.59996094 96.16719727 8.59996094 96.16719727 6.7890625 96.14648438 C3.85892461 96.11103916 0.92968541 96.06162769 -2 96 C-1.23215064 92.62349395 -0.1039896 90.34254385 1.8125 87.4375 C2.75222656 85.99503906 2.75222656 85.99503906 3.7109375 84.5234375 C4.06897461 83.97526367 4.42701172 83.42708984 4.79589844 82.86230469 C6.16523743 80.74443814 7.50988464 78.61205902 8.8515625 76.4765625 C9.35558594 75.67436279 9.85960937 74.87216309 10.37890625 74.0456543 C11.41884834 72.38881674 12.45790964 70.73142602 13.49609375 69.07348633 C15.79118442 65.42567213 18.09968551 61.80621085 20.5859375 58.28515625 C21.32070313 57.24230469 22.05546875 56.19945312 22.8125 55.125 C23.45832031 54.24070313 24.10414062 53.35640625 24.76953125 52.4453125 C26.18592834 50.10309851 26.18592834 50.10309851 25.95703125 47.62890625 C24.67103215 44.09634545 22.83344073 41.0012235 20.875 37.8125 C19.9779272 36.31845185 19.08218747 34.82360279 18.1875 33.328125 C17.68863281 32.49732422 17.18976562 31.66652344 16.67578125 30.81054688 C13.7128354 25.84122395 10.8034739 20.84097569 7.90338135 15.83480835 C6.88184103 14.0742898 5.8548078 12.317052 4.82763672 10.55981445 C4.20131348 9.47917725 3.57499023 8.39854004 2.9296875 7.28515625 C2.36491699 6.31457275 1.80014648 5.34398926 1.21826172 4.34399414 C0 2 0 2 0 0 Z " fill="#F8FBF8" transform="translate(30,75)"/>
<path d="M0 0 C45.54 0 91.08 0 138 0 C134.57536546 2.2830897 132.19041567 2.69503229 128.15136719 3.43432617 C127.45412788 3.56410921 126.75688858 3.69389225 126.03852081 3.82760811 C123.7090852 4.2598433 121.37800407 4.68247044 119.046875 5.10546875 C117.38940227 5.41166933 115.73207678 5.71866781 114.07489014 6.02641296 C110.5431445 6.68189532 107.01086864 7.33441389 103.47827148 7.98529053 C95.33415556 9.48959789 87.19913826 11.04178473 79.06367493 12.59207535 C75.4043754 13.28928379 71.74479678 13.9850214 68.08522797 14.68081474 C65.32826338 15.20505181 62.57135467 15.72958194 59.81445312 16.25415039 C56.05482716 16.9694056 52.29505113 17.68386486 48.53515625 18.39770508 C43.88868976 19.27987766 39.24248343 20.16340834 34.59645844 21.04790306 C32.85676785 21.37886867 31.11698841 21.70936757 29.37711334 22.03936195 C26.96632779 22.49669974 24.55582295 22.95547301 22.14550781 23.4152832 C21.40771717 23.5558077 20.66992653 23.69633219 19.90977859 23.841115 C16.15163477 24.56338683 12.41597926 25.34112364 8.69042969 26.21557617 C5 27 5 27 0 27 C0 18.09 0 9.18 0 0 Z " fill="#FAFCFA" transform="translate(0,0)"/>
<path d="M0 0 C12.54 0 25.08 0 38 0 C38 6.27 38 12.54 38 19 C25.46 19 12.92 19 0 19 C0 12.73 0 6.46 0 0 Z " fill="#F3F9F3" transform="translate(189,95)"/>
<path d="M0 0 C12.54 0 25.08 0 38 0 C38 6.27 38 12.54 38 19 C25.46 19 12.92 19 0 19 C0 12.73 0 6.46 0 0 Z " fill="#FBFCFB" transform="translate(189,57)"/>
<path d="M0 0 C12.21 0 24.42 0 37 0 C37 5.94 37 11.88 37 18 C24.79 18 12.58 18 0 18 C0 12.06 0 6.12 0 0 Z " fill="#F9FDF9" transform="translate(190,171)"/>
<path d="M0 0 C12.21 0 24.42 0 37 0 C37 5.94 37 11.88 37 18 C24.79 18 12.58 18 0 18 C0 12.06 0 6.12 0 0 Z " fill="#F9FCF9" transform="translate(190,133)"/>
<path d="M0 0 C12.54 0 25.08 0 38 0 C38 0.66 38 1.32 38 2 C34.39816685 3.20061105 31.22311412 3.02185426 27.48828125 2.87890625 C26.76005661 2.85529526 26.03183197 2.83168427 25.28153992 2.80735779 C22.9583216 2.7308565 20.63544807 2.6467744 18.3125 2.5625 C16.73634493 2.50926573 15.16017309 2.45652542 13.58398438 2.40429688 C9.7223747 2.2761866 5.861324 2.1378287 2 2 C1.67 7.28 1.34 12.56 1 18 C13.21 18 25.42 18 38 18 C38 18.33 38 18.66 38 19 C25.46 19 12.92 19 0 19 C0 12.73 0 6.46 0 0 Z " fill="#DAF4DA" transform="translate(189,57)"/>
<path d="M0 0 C0.83144531 0.00902344 1.66289062 0.01804688 2.51953125 0.02734375 C4.55481337 0.0507378 6.58994564 0.08660275 8.625 0.125 C5.46475868 2.23182755 3.50841745 2.70952892 -0.1796875 3.4140625 C-1.32050781 3.63320313 -2.46132812 3.85234375 -3.63671875 4.078125 C-4.82910156 4.29984375 -6.02148438 4.5215625 -7.25 4.75 C-8.43464844 4.97945313 -9.61929688 5.20890625 -10.83984375 5.4453125 C-20.486687 7.27244854 -20.486687 7.27244854 -25.375 7.125 C-24.385 6.795 -23.395 6.465 -22.375 6.125 C-22.375 5.465 -22.375 4.805 -22.375 4.125 C-20.395 4.125 -18.415 4.125 -16.375 4.125 C-16.045 3.465 -15.715 2.805 -15.375 2.125 C-10.2511904 -0.18637152 -5.4956329 -0.11394454 0 0 Z " fill="#F0F9EF" transform="translate(129.375,-0.125)"/>
<path d="M0 0 C0.66 1.32 1.32 2.64 2 4 C2.66 4 3.32 4 4 4 C4.33 4.66 4.66 5.32 5 6 C8.87797662 6.43386092 8.87797662 6.43386092 10.75 4.5 C11.1625 4.005 11.575 3.51 12 3 C11.34580901 8.06998019 9.1453591 12.41990777 7 17 C4.35820725 13.80815657 2.85450983 10.58418661 1.3125 6.75 C0.87550781 5.67234375 0.43851562 4.5946875 -0.01171875 3.484375 C-0.33785156 2.66453125 -0.66398437 1.8446875 -1 1 C-0.67 0.67 -0.34 0.34 0 0 Z " fill="#0F7610" transform="translate(66,94)"/>
<path d="M0 0 C7.92 0 15.84 0 24 0 C23.34 1.65 22.68 3.3 22 5 C21.67 4.01 21.34 3.02 21 2 C18.10275937 2.08724816 15.20849865 2.19415927 12.3125 2.3125 C11.08756836 2.34633789 11.08756836 2.34633789 9.83789062 2.38085938 C5.09279093 2.5921796 1.91286695 3.02749618 -2 6 C-1.34 4.02 -0.68 2.04 0 0 Z " fill="#D3F1D3" transform="translate(90,75)"/>
<path d="M0 0 C8.58 0 17.16 0 26 0 C26 0.33 26 0.66 26 1 C18.41 1.33 10.82 1.66 3 2 C3 2.99 3 3.98 3 5 C3.61875 5.20625 4.2375 5.4125 4.875 5.625 C7.84653645 7.54775888 8.13024659 9.66594527 9 13 C8.01 13 7.02 13 6 13 C4.99491199 11.21118264 3.99607264 9.41885304 3 7.625 C2.1646875 6.12839844 2.1646875 6.12839844 1.3125 4.6015625 C0 2 0 2 0 0 Z " fill="#CBEDCB" transform="translate(30,75)"/>
<path d="M0 0 C3.72934897 0.64478351 7.45844626 1.29101138 11.1875 1.9375 C12.77014648 2.21110352 12.77014648 2.21110352 14.38476562 2.49023438 C15.40634766 2.66748047 16.42792969 2.84472656 17.48046875 3.02734375 C18.88655396 3.27085571 18.88655396 3.27085571 20.32104492 3.51928711 C22.88817232 3.97993359 25.44447284 4.47916695 28 5 C25 7 25 7 21 7 C21 6.34 21 5.68 21 5 C20.37351563 5.08378906 19.74703125 5.16757813 19.1015625 5.25390625 C17.87566406 5.40666016 17.87566406 5.40666016 16.625 5.5625 C15.81289062 5.66691406 15.00078125 5.77132812 14.1640625 5.87890625 C12 6 12 6 10 5 C10 4.34 10 3.68 10 3 C7.98177083 3.09765625 5.96354167 3.1953125 3.9453125 3.29296875 C3.30335937 3.19628906 2.66140625 3.09960938 2 3 C1.34 2.01 0.68 1.02 0 0 Z " fill="#E1F4E2" transform="translate(110,240)"/>
<path d="M0 0 C0.66 0.33 1.32 0.66 2 1 C1.59007813 1.68449219 1.18015625 2.36898437 0.7578125 3.07421875 C-0.36664298 6.1367602 -0.36664298 6.1367602 1.5546875 9.33203125 C2.30968825 10.50426926 3.08392899 11.66429499 3.875 12.8125 C4.26558594 13.40998047 4.65617187 14.00746094 5.05859375 14.62304688 C6.02277979 16.09284266 7.00928981 17.54795052 8 19 C7.01 19.33 6.02 19.66 5 20 C-1.59090909 10.22727273 -1.59090909 10.22727273 -3 6 C-1.5 1.5 -1.5 1.5 0 0 Z " fill="#E2F3E3" transform="translate(87,118)"/>
<path d="M0 0 C4 4.36363636 4 4.36363636 4 6.875 C2.51352676 10.03375564 0.78802145 13.00073821 -1 16 C-1.33 16 -1.66 16 -2 16 C-1.979375 15.030625 -1.95875 14.06125 -1.9375 13.0625 C-1.64381501 10.12534105 -1.64381501 10.12534105 -3 9 C-2.01 6.03 -1.02 3.06 0 0 Z " fill="#187819" transform="translate(53,117)"/>
<path d="M0 0 C1.99097846 2.98646769 2.94124926 5.59687262 4 9 C2.68 9 1.36 9 0 9 C-2.23377831 9.57518232 -2.23377831 9.57518232 -4 11 C-4.81171228 13.55519921 -4.81171228 13.55519921 -5 16 C-5.66 15.34 -6.32 14.68 -7 14 C-4.66666667 9.33333333 -2.33333333 4.66666667 0 0 Z " fill="#1D711E" transform="translate(71,135)"/>
<path d="M0 0 C5.625 1.125 5.625 1.125 8 4 C7.38125 4.28875 6.7625 4.5775 6.125 4.875 C3.86674235 5.93720042 3.86674235 5.93720042 2 8 C1.53603307 10.89223503 1.53603307 10.89223503 1.375 14.125 C1.30023438 15.22070312 1.22546875 16.31640625 1.1484375 17.4453125 C1.07496094 18.70988281 1.07496094 18.70988281 1 20 C0.67 20 0.34 20 0 20 C0 13.4 0 6.8 0 0 Z " fill="#1D7720" transform="translate(180,170)"/>
<path d="M0 0 C0.84119973 2.39957614 1.11193544 3.64922558 0.328125 6.10546875 C-0.02765625 6.79253906 -0.3834375 7.47960937 -0.75 8.1875 C-1.26820312 9.22970703 -1.26820312 9.22970703 -1.796875 10.29296875 C-3 12 -3 12 -6 13 C-6.33 13.99 -6.66 14.98 -7 16 C-7 11.34343175 -5.8886067 9.67413957 -3.5 5.75 C-2.8503125 4.67234375 -2.200625 3.5946875 -1.53125 2.484375 C-1.0259375 1.66453125 -0.520625 0.8446875 0 0 Z " fill="#237526" transform="translate(101,97)"/>
<path d="M0 0 C0 1.65 0 3.3 0 5 C-1.79093191 5.08086147 -3.58289628 5.13912702 -5.375 5.1875 C-6.87160156 5.23970703 -6.87160156 5.23970703 -8.3984375 5.29296875 C-9.25695312 5.19628906 -10.11546875 5.09960938 -11 5 C-11.66 4.01 -12.32 3.02 -13 2 C-11.39658445 1.66307215 -9.79223445 1.33058907 -8.1875 1 C-7.29417969 0.814375 -6.40085938 0.62875 -5.48046875 0.4375 C-3 0 -3 0 0 0 Z " fill="#258026" transform="translate(141,0)"/>
<path d="M0 0 C8.415 1.485 8.415 1.485 17 3 C17 3.33 17 3.66 17 4 C12.545 4.495 12.545 4.495 8 5 C8 4.67 8 4.34 8 4 C5.69 4 3.38 4 1 4 C0.67 2.68 0.34 1.36 0 0 Z " fill="#D5EFD4" transform="translate(27,224)"/>
<path d="M0 0 C3.05001831 3.66002197 7 9.07851471 7 14 C4 13 4 13 2.83203125 11.328125 C-0.55343511 4.42748092 -0.55343511 4.42748092 0 0 Z " fill="#DBF0DB" transform="translate(62,90)"/>
<path d="M0 0 C7.92 0 15.84 0 24 0 C24.33 0.99 24.66 1.98 25 3 C24.27530518 2.84152588 23.55061035 2.68305176 22.80395508 2.51977539 C20.21048338 2.03901777 17.7680216 1.80242678 15.13671875 1.68359375 C13.80737305 1.62075195 13.80737305 1.62075195 12.45117188 1.55664062 C11.53916016 1.51732422 10.62714844 1.47800781 9.6875 1.4375 C8.75615234 1.39431641 7.82480469 1.35113281 6.86523438 1.30664062 C4.57695546 1.20102775 2.28857628 1.09892248 0 1 C0 0.67 0 0.34 0 0 Z " fill="#ECFCED" transform="translate(32,76)"/>
<path d="M0 0 C1.305239 3.91571701 0.32239848 5.03892997 -1.4375 8.6875 C-1.91058594 9.68136719 -2.38367188 10.67523438 -2.87109375 11.69921875 C-3.42990234 12.83810547 -3.42990234 12.83810547 -4 14 C-7 10.25 -7 10.25 -7 8 C-5.68 8 -4.36 8 -3 8 C-2.814375 6.8553125 -2.814375 6.8553125 -2.625 5.6875 C-2 3 -2 3 0 0 Z " fill="#1B661A" transform="translate(77,97)"/>
<path d="M0 0 C0.85709523 3.07394306 1.15444061 4.95647475 0 8 C-0.99 8.495 -0.99 8.495 -2 9 C-3.04808041 10.97522846 -4.0520411 12.97481509 -5 15 C-5.66 15 -6.32 15 -7 15 C-5.63408831 11.45756548 -4.09068516 8.07372071 -2.375 4.6875 C-1.70597656 3.36298828 -1.70597656 3.36298828 -1.0234375 2.01171875 C-0.68570313 1.34785156 -0.34796875 0.68398437 0 0 Z " fill="#2B752C" transform="translate(60,156)"/>
<path d="M0 0 C0.99 0.33 1.98 0.66 3 1 C0.69 4.63 -1.62 8.26 -4 12 C-5 9 -5 9 -4.2578125 6.9921875 C-3.88398437 6.29351562 -3.51015625 5.59484375 -3.125 4.875 C-2.75632812 4.17117187 -2.38765625 3.46734375 -2.0078125 2.7421875 C-1 1 -1 1 0 0 Z " fill="#E4F7E4" transform="translate(95,103)"/>
<path d="M0 0 C2 0 2 0 3.5 1.125 C6.44477417 4.80596772 7.19564831 9.44200709 8 14 C0 4.57142857 0 4.57142857 0 0 Z " fill="#DFF4DE" transform="translate(46,103)"/>
<path d="M0 0 C-0.33 0.99 -0.66 1.98 -1 3 C-5.62 3 -10.24 3 -15 3 C-15 2.67 -15 2.34 -15 2 C-13.43883181 1.66048381 -11.87598662 1.32867456 -10.3125 1 C-9.44238281 0.814375 -8.57226562 0.62875 -7.67578125 0.4375 C-5.06287036 0.01027953 -2.64186962 -0.07616201 0 0 Z " fill="#37803A" transform="translate(55,17)"/>
<path d="M0 0 C0.99 0.33 1.98 0.66 3 1 C3 1.99 3 2.98 3 4 C3.66 4 4.32 4 5 4 C6.625 5.125 6.625 5.125 8 7 C8.1875 10.1875 8.1875 10.1875 8 13 C4.48901975 8.98745115 2.23462006 4.79016959 0 0 Z " fill="#267429" transform="translate(93,134)"/>
<path d="M0 0 C1.32 0.99 2.64 1.98 4 3 C3.34 4.65 2.68 6.3 2 8 C0.02 6.68 -1.96 5.36 -4 4 C-2.68 3.34 -1.36 2.68 0 2 C0 1.34 0 0.68 0 0 Z " fill="#E6F3E4" transform="translate(244,25)"/>
<path d="M0 0 C0.66 0 1.32 0 2 0 C2 0.66 2 1.32 2 2 C2.99 1.67 3.98 1.34 5 1 C5.66 3.31 6.32 5.62 7 8 C6.34 8.66 5.68 9.32 5 10 C3.35 6.7 1.7 3.4 0 0 Z " fill="#237626" transform="translate(109,160)"/>
<path d="M0 0 C3.63 0.66 7.26 1.32 11 2 C6.46780033 4.26609984 4.82227075 3.92735976 0 3 C0 2.01 0 1.02 0 0 Z " fill="#DFF4E0" transform="translate(0,219)"/>
<path d="M0 0 C1 3 1 3 0 6 C-0.66 6 -1.32 6 -2 6 C-2.309375 6.61875 -2.61875 7.2375 -2.9375 7.875 C-3.625 9.25 -4.3125 10.625 -5 12 C-5.66 11.67 -6.32 11.34 -7 11 C-4.69 7.37 -2.38 3.74 0 0 Z " fill="#DEF4DC" transform="translate(54,128)"/>
<path d="M0 0 C2.0625 2.25 2.0625 2.25 4 5 C3.82560493 8.05191378 3.18741485 8.81258515 1 11 C0.67 7.37 0.34 3.74 0 0 Z " fill="#277226" transform="translate(53,117)"/>
<path d="M0 0 C2.25245881 2.68841859 3.88213958 4.64641875 5 8 C4.34 8.66 3.68 9.32 3 10 C2.896875 9.360625 2.79375 8.72125 2.6875 8.0625 C2.460625 7.381875 2.23375 6.70125 2 6 C1.01 5.67 0.02 5.34 -1 5 C-0.67 3.35 -0.34 1.7 0 0 Z " fill="#247723" transform="translate(42,98)"/>
<path d="M0 0 C0.99 0 1.98 0 3 0 C1.125 4.75 1.125 4.75 0 7 C-1.98 7 -3.96 7 -6 7 C-5.34 6.34 -4.68 5.68 -4 5 C-3.01 5.33 -2.02 5.66 -1 6 C-1.020625 5.195625 -1.04125 4.39125 -1.0625 3.5625 C-1 1 -1 1 0 0 Z " fill="#E6F8E7" transform="translate(53,164)"/>
<path d="M0 0 C0.99 0 1.98 0 3 0 C3.33 0.99 3.66 1.98 4 3 C2.0625 6.1875 2.0625 6.1875 0 9 C-0.99 8.34 -1.98 7.68 -3 7 C-2.34 7 -1.68 7 -1 7 C-0.67 4.69 -0.34 2.38 0 0 Z " fill="#176E18" transform="translate(28,161)"/>
<path d="M0 0 C0.66 0.99 1.32 1.98 2 3 C0.12050295 6.57104439 -1.17053157 8.54744301 -5 10 C-3.66511872 6.40608886 -2.03977277 3.24509304 0 0 Z " fill="#D6EDD5" transform="translate(46,140)"/>
<path d="M0 0 C3.875 1.875 3.875 1.875 5 3 C5.04063832 4.66617115 5.042721 6.33388095 5 8 C3.02 8.99 3.02 8.99 1 10 C1.20625 9.0925 1.4125 8.185 1.625 7.25 C2.0127245 3.88972103 1.80411967 2.75924185 0 0 Z " fill="#E6F8E6" transform="translate(54,118)"/>
<path d="M0 0 C2.9555377 2.75170751 5.11563315 5.41970299 7 9 C7 9.66 7 10.32 7 11 C6.34 11 5.68 11 5 11 C4.34 9.35 3.68 7.7 3 6 C2.34 6 1.68 6 1 6 C0.67 4.02 0.34 2.04 0 0 Z " fill="#1F6E1F" transform="translate(35,87)"/>
<path d="M0 0 C0.33 0 0.66 0 1 0 C1 2.97 1 5.94 1 9 C0.01 9.495 0.01 9.495 -1 10 C-2.1875 7.8125 -2.1875 7.8125 -3 5 C-1.6875 2.1875 -1.6875 2.1875 0 0 Z " fill="#237227" transform="translate(89,117)"/>
<path d="M0 0 C1.0326802 2.78823655 1.04509293 3.8677274 0.0625 6.75 C-0.288125 7.4925 -0.63875 8.235 -1 9 C-1.99 9 -2.98 9 -4 9 C-2.94124926 5.59687262 -1.99097846 2.98646769 0 0 Z " fill="#CFEACF" transform="translate(84,87)"/>
<path d="M0 0 C4.29 0.66 8.58 1.32 13 2 C8.63624057 4.18187972 7.5342242 4.25414712 3 3 C2.01 2.01 1.02 1.02 0 0 Z " fill="#E5F8E4" transform="translate(77,234)"/>
<path d="M0 0 C3 1 3 1 4.0625 3 C4.371875 3.66 4.68125 4.32 5 5 C5.66 5.33 6.32 5.66 7 6 C7 7.65 7 9.3 7 11 C4.04250209 7.53258866 1.92151848 4.13126473 0 0 Z " fill="#267128" transform="translate(102,149)"/>
<path d="M0 0 C0.33 0 0.66 0 1 0 C1 1.65 1 3.3 1 5 C0.01 5.495 0.01 5.495 -1 6 C-1.72159424 7.64363134 -2.39351421 9.31050386 -3 11 C-3.66 10.67 -4.32 10.34 -5 10 C-3.66654496 6.40992874 -2.1056769 3.20429093 0 0 Z " fill="#28762B" transform="translate(107,87)"/>
<path d="M0 0 C4.29 0 8.58 0 13 0 C13 0.33 13 0.66 13 1 C11.27192682 1.33895656 9.54248026 1.67091525 7.8125 2 C6.36810547 2.2784375 6.36810547 2.2784375 4.89453125 2.5625 C2.2065794 2.96877612 -0.28771019 3.07933572 -3 3 C-2.01 2.67 -1.02 2.34 0 2 C0 1.34 0 0.68 0 0 Z " fill="#D3EED2" transform="translate(107,4)"/>
<path d="M0 0 C4.29 0.66 8.58 1.32 13 2 C10 4 10 4 6 4 C6 3.34 6 2.68 6 2 C3.03 1.505 3.03 1.505 0 1 C0 0.67 0 0.34 0 0 Z " fill="#D3EED2" transform="translate(125,243)"/>
<path d="M0 0 C0 0.33 0 0.66 0 1 C-3.3 1.33 -6.6 1.66 -10 2 C-10.33 1.34 -10.66 0.68 -11 0 C-6.94952424 -1.35015859 -4.2079832 -0.62084998 0 0 Z " fill="#1A781C" transform="translate(106,236)"/>
<path d="M0 0 C0.66 1.32 1.32 2.64 2 4 C0.625 6 0.625 6 -1 8 C-1.66 8 -2.32 8 -3 8 C-1.125 1.125 -1.125 1.125 0 0 Z " fill="#2D712E" transform="translate(71,135)"/>
<path d="M0 0 C0.99386719 0.02707031 1.98773438 0.05414062 3.01171875 0.08203125 C4.15060547 0.13423828 4.15060547 0.13423828 5.3125 0.1875 C2.19339144 1.98025866 -0.36432428 2.53040718 -3.9375 2.8125 C-4.82953125 2.88726563 -5.7215625 2.96203125 -6.640625 3.0390625 C-7.31609375 3.08804687 -7.9915625 3.13703125 -8.6875 3.1875 C-6.10291354 -0.17334451 -4.11082043 -0.14508778 0 0 Z " fill="#D6F0D4" transform="translate(8.6875,23.8125)"/>
<path d="M0 0 C0.66 1.32 1.32 2.64 2 4 C2.66 4 3.32 4 4 4 C4.33 5.32 4.66 6.64 5 8 C4.01 8 3.02 8 2 8 C1.01 5.69 0.02 3.38 -1 1 C-0.67 0.67 -0.34 0.34 0 0 Z " fill="#1F7421" transform="translate(66,94)"/>
</svg>
